<?xml version="1.0" encoding="UTF-8"?>
<svg xmlns="http://www.w3.org/2000/svg" xmlns:xlink="http://www.w3.org/1999/xlink" width="1024px" height="1024px" viewBox="0 0 1024 1024" version="1.1">
<defs>
<linearGradient id="linear0" gradientUnits="userSpaceOnUse" x1="0" y1="50" x2="100" y2="50" gradientTransform="matrix(10.24,0,0,10.24,0,0)">
<stop offset="0" style="stop-color:rgb(0%,50.196078%,40.784314%);stop-opacity:1;"/>
<stop offset="1" style="stop-color:rgb(0%,40%,32.54902%);stop-opacity:1;"/>
</linearGradient>
</defs>
<g id="surface1">
<path style=" stroke:none;fill-rule:nonzero;fill:url(#linear0);" d="M 286.71875 0 L 737.28125 0 C 895.632812 0 1024 128.367188 1024 286.71875 L 1024 737.28125 C 1024 895.632812 895.632812 1024 737.28125 1024 L 286.71875 1024 C 128.367188 1024 0 895.632812 0 737.28125 L 0 286.71875 C 0 128.367188 128.367188 0 286.71875 0 Z M 286.71875 0 "/>
<path style=" stroke:none;fill-rule:nonzero;fill:rgb(100%,100%,100%);fill-opacity:1;" d="M 293 327.121094 C 247 332 207.28125 366 195.199219 410.878906 C 193 419.28125 192.71875 422.601562 192.601562 437.519531 C 192.480469 456 193.398438 462.878906 198.199219 477.398438 C 201.800781 488.71875 207.679688 499.800781 215.601562 510.320312 C 223.28125 520.398438 435.601562 732.480469 448 742.398438 C 463.679688 754.878906 484.398438 763.121094 504 764.601562 C 527.519531 766.320312 555.601562 758.078125 574 744.078125 C 577.601562 741.28125 632.078125 687.679688 695.121094 624.800781 C 800.601562 519.519531 810 509.921875 814.398438 502.320312 C 820.878906 491.199219 825.601562 480 828.71875 468.320312 C 831 459.601562 831.28125 456.601562 831.28125 441.519531 C 831.398438 427.601562 831 422.800781 829.199219 415.28125 C 824.199219 393.519531 814.199219 375.199219 799.398438 360.480469 C 783 344.199219 764.398438 334 741 328.398438 C 733.921875 326.71875 721.28125 326.601562 517.519531 326.398438 C 396.078125 326.320312 297.800781 326.601562 293 327.121094 Z M 730.601562 424.199219 C 737.601562 429 739.28125 431.921875 739.800781 439.519531 C 740.199219 444.71875 739.800781 446.480469 738.199219 449.199219 C 737 451 727.398438 460.800781 716.800781 471 C 698.320312 488.800781 625.199219 561 566.601562 619.519531 C 519.519531 666.480469 515.679688 670 511.800781 670 C 510 670 507.921875 669.601562 507.121094 669.121094 C 506.320312 668.601562 455.601562 618.078125 394.320312 556.878906 C 302.878906 465.519531 283 445.121094 283 442.878906 C 283 441.519531 284.480469 437.398438 286.320312 433.921875 C 288.71875 429.121094 290.71875 426.71875 294.398438 424.199219 L 299.199219 421 L 725.800781 421 Z M 730.601562 424.199219 "/>
</g>
</svg>
